<svg width="64" height="64" viewBox="0 0 64 64" fill="none" xmlns="http://www.w3.org/2000/svg">
<mask id="mask0_7868_128539" style="mask-type:alpha" maskUnits="userSpaceOnUse" x="4" y="4" width="56" height="56">
<path d="M58.2816 34.2872L46.0531 37.6016L36.5675 32.0016L46.0531 26.4015L58.2816 29.7157L59.4246 25.2586L48.4531 22.4015L51.4246 11.3158L47.0816 10.0586L43.7675 22.4015L34.2816 28.0016V16.9158L43.196 7.77291L39.996 4.57291L31.996 12.6872L23.9959 4.57291L20.7959 7.77291L29.7102 16.9158V28.0016L20.2245 22.4015L16.9102 10.0586L12.5674 11.3158L15.5388 22.4015L4.56738 25.2586L5.71024 29.7157L17.9388 26.4015L27.4246 32.0016L17.9388 37.6016L5.71024 34.2872L4.56738 38.7443L15.5388 41.6016L12.5674 52.6872L16.9102 53.9443L20.2245 41.6016L29.7102 36.0016V47.0872L20.7959 56.2301L23.9959 59.4301L31.996 51.3157L39.996 59.4301L43.196 56.2301L34.2816 47.0872V36.0016L43.7675 41.6016L47.0816 53.9443L51.4246 52.6872L48.4531 41.6016L59.4246 38.7443L58.2816 34.2872Z" fill="#FF00FF"/>
</mask>
<g mask="url(#mask0_7868_128539)">
<rect width="64" height="64" fill="#0E0F0C"/>
</g>
</svg>
