<svg width="74" height="74" viewBox="0 0 74 74" fill="none" xmlns="http://www.w3.org/2000/svg">
<circle cx="37" cy="37" r="37" fill="white" fill-opacity="0.1"/>
<mask id="mask0_7826_129076" style="mask-type:alpha" maskUnits="userSpaceOnUse" x="24" y="24" width="27" height="27">
<path d="M46.9576 32.9437C46.5952 27.9902 42.427 24.0637 37.3527 24.0637C32.2784 24.0637 28.1103 27.9902 27.7478 32.9437C25.6335 33.427 24.0629 35.2392 24.0629 37.3535C24.0629 39.4677 25.6335 41.2801 27.7478 41.7633C28.1103 46.7168 32.2784 50.6433 37.3527 50.6433H40.9773V48.2269H37.3527C33.3658 48.2269 30.1037 44.9649 30.1037 40.978V33.729C30.1037 29.7421 33.3658 26.48 37.3527 26.48C41.3397 26.48 44.6017 29.7421 44.6017 33.729V40.676C44.6017 41.3404 45.1454 41.8841 45.8098 41.8841C48.4678 41.8841 50.6425 39.8303 50.6425 37.3535C50.6425 35.2392 49.0719 33.427 46.9576 32.9437ZM26.4792 37.3535C26.4792 36.5682 26.9625 35.9038 27.6874 35.5412V39.1658C26.9625 38.8033 26.4792 38.1388 26.4792 37.3535ZM47.0181 39.1658V35.5412C47.743 35.9038 48.2262 36.5682 48.2262 37.3535C48.2262 38.1388 47.743 38.8033 47.0181 39.1658Z" fill="#FF00FF"/>
</mask>
<g mask="url(#mask0_7826_129076)">
<rect x="20.4381" y="20.438" width="33.8286" height="33.8286" fill="white"/>
</g>
</svg>
