<svg width="64" height="64" viewBox="0 0 64 64" fill="none" xmlns="http://www.w3.org/2000/svg">
<mask id="mask0_7868_128547" style="mask-type:alpha" maskUnits="userSpaceOnUse" x="6" y="5" width="52" height="54">
<path d="M54.8603 39.9992C50.7461 39.9992 50.2888 36.7992 50.2888 35.4277V23.9992C50.2888 13.9421 42.0603 5.7135 32.0032 5.7135C21.9461 5.7135 13.7175 13.9421 13.7175 23.9992V35.4277C13.7175 36.7992 13.2604 39.9992 9.14608 39.9992C7.88894 39.9992 6.86035 41.0277 6.86035 42.285V49.1421C6.86035 50.3992 7.88894 51.4277 9.14608 51.4277H25.1461C25.1461 55.1992 28.2317 58.285 32.0032 58.285C35.7747 58.285 38.8603 55.1992 38.8603 51.4277H54.8603C56.1176 51.4277 57.1461 50.3992 57.1461 49.1421V42.285C57.1461 41.0277 56.1176 39.9992 54.8603 39.9992ZM32.0032 53.7136C30.7461 53.7136 29.7176 52.685 29.7176 51.4277H34.2888C34.2888 52.685 33.2603 53.7136 32.0032 53.7136ZM52.5747 46.8562H11.4318V44.3421C16.1175 43.4277 18.2889 39.4277 18.2889 35.4277V23.9992C18.2889 16.4564 24.4604 10.2849 32.0032 10.2849C39.5461 10.2849 45.7176 16.4564 45.7176 23.9992V35.4277C45.7176 39.4277 47.8888 43.4277 52.5747 44.3421V46.8562Z" fill="#FF00FF"/>
</mask>
<g mask="url(#mask0_7868_128547)">
<rect width="64" height="64" fill="#0E0F0C"/>
</g>
</svg>
