<svg xmlns="http://www.w3.org/2000/svg" viewBox="0 0 1132.8 278.2"><style>.st0{fill:#fff}</style><path class="st0" d="M298 99h114v21h-45v120h-25V120h-44V99zm110 39h21v19l4-8a36 36 0 0116-12l10-2h9v22a72 72 0 00-10-1c-4 0-8 1-11 3l-9 6-6 11-2 15v49h-23V138zm164 102h-23v-14c-3 5-7 9-13 12-5 4-11 5-16 5-14 0-24-3-30-10s-9-17-9-30v-65h23v63c0 9 2 15 5 19 4 3 8 5 15 5 5 0 8 0 12-2 3-1 5-3 7-6 2-2 4-5 5-9l1-11v-59h22v102zm38-33c1 7 3 12 8 14 4 3 9 4 15 4h7l8-2 6-4 2-7c0-3-1-5-3-7l-8-5-10-3-12-2-13-4-10-5c-3-2-6-5-8-9-2-3-2-7-2-13 0-5 1-10 4-14l10-9 14-5 14-1 16 2a32 32 0 0128 30h-24c-1-6-4-10-8-11-3-2-8-3-13-3a42 42 0 00-12 2c-2 0-3 1-5 3l-2 5c0 3 1 5 3 7l8 4 10 3 13 3 12 3c4 2 7 3 10 6l8 8c2 4 3 8 3 13 0 6-2 11-5 15-2 5-6 8-10 11l-15 5a74 74 0 01-34 0c-6-1-11-4-15-6a33 33 0 01-13-27h23zm75-69h17v-31h22v31h21v17h-21v54l1 7 1 4 3 3 6 1 5-1h5v17l-7 1a58 58 0 01-22-1c-4-1-7-3-9-5l-4-8-1-12v-60h-17v-17zm76 0h21v14h1c3-6 7-11 13-13 5-3 12-4 18-4 8 0 15 1 21 4s11 7 15 12 7 11 9 17a73 73 0 01-8 59 40 40 0 01-33 16 55 55 0 01-19-4 34 34 0 01-15-12h-1v51h-22V138zm79 51l-2-13-5-12-9-8c-4-2-8-3-13-3-9 0-16 3-21 10-5 6-7 15-7 26 0 5 0 10 2 15l5 11c3 3 6 6 9 7l12 3a25 25 0 0022-11c3-4 4-7 5-12l2-13zm40-90h22v21h-22V99zm0 39h22v102h-22V138zm42-39h23v141h-23V99zm92 144c-8 0-15-1-22-4-6-3-11-6-16-11-4-5-8-11-10-17a66 66 0 010-44c2-6 6-12 10-17 5-5 10-8 16-11 7-3 14-4 22-4s16 1 22 4c7 3 12 7 17 11l10 17c2 7 3 14 3 22s-1 15-3 22c-3 6-6 12-11 17-4 5-9 8-16 11-6 3-13 4-22 4zm0-18a26 26 0 0022-11l6-12a53 53 0 000-26c-1-5-3-8-6-12a26 26 0 00-22-11 26 26 0 00-22 11l-5 12a54 54 0 000 26l5 12c2 3 5 6 9 8s8 3 13 3zm59-87h17v-31h22v31h21v17h-21v54l1 7 1 4 3 3 6 1 5-1h5v17l-7 1a58 58 0 01-22-1c-4-1-7-3-9-5l-4-8-1-12v-60h-17v-17z" id="Type"/><g id="Star"><path id="Star_1_" class="st0" d="M136 197l59-15 25 76-84-61zm135-98H168L136 0l-32 99H0l84 60-32 99 84-61 51-38 84-60z"/></g></svg>