<svg width="74" height="74" viewBox="0 0 74 74" fill="none" xmlns="http://www.w3.org/2000/svg">
<circle cx="37" cy="37" r="37" fill="white" fill-opacity="0.1"/>
<mask id="mask0_7826_129068" style="mask-type:alpha" maskUnits="userSpaceOnUse" x="25" y="22" width="25" height="30">
<path fill-rule="evenodd" clip-rule="evenodd" d="M44.6009 32.5186H48.2254C48.8898 32.5186 49.4335 33.0623 49.4335 33.7267V48.2247C49.4335 50.2182 47.8025 51.8492 45.809 51.8492H28.8947C26.9012 51.8492 25.2702 50.2182 25.2702 48.2247V33.7267C25.2702 33.0623 25.8139 32.5186 26.4784 32.5186H30.1029V30.1023C30.1029 26.1153 33.3649 22.8533 37.3519 22.8533C41.3388 22.8533 44.6009 26.1153 44.6009 30.1023V32.5186ZM37.3519 25.2696C34.6939 25.2696 32.5192 27.4443 32.5192 30.1023V32.5186H42.1846V30.1023C42.1846 27.4443 40.0098 25.2696 37.3519 25.2696ZM45.809 49.4328C46.4735 49.4328 47.0171 48.8892 47.0171 48.2247V34.9349H27.6866V48.2247C27.6866 48.8892 28.2302 49.4328 28.8947 49.4328H45.809ZM36.1433 47.0134V43.0264C35.4186 42.664 34.9352 41.8788 34.9352 40.9726C34.9352 39.6435 36.0225 38.5562 37.3516 38.5562C38.6805 38.5562 39.7679 39.6435 39.7679 40.9726C39.7679 41.8183 39.2846 42.6035 38.5597 43.0264V47.0134H36.1433Z" fill="#FF00FF"/>
</mask>
<g mask="url(#mask0_7826_129068)">
<rect x="20.4377" y="20.439" width="33.8286" height="33.8286" fill="white"/>
</g>
</svg>
