<svg width="1440" height="770" viewBox="0 0 1440 770" fill="none" xmlns="http://www.w3.org/2000/svg">
<g clip-path="url(#clip0_9013_154039)">
<path d="M348 525C425.319 525 488 462.319 488 385C488 307.68 425.319 245 348 245C270.68 245 208 307.68 208 385C208 462.319 270.68 525 348 525Z" fill="#231D9A"/>
<path fill-rule="evenodd" clip-rule="evenodd" d="M351.77 282.74L347.998 271.132L344.227 282.74H332.021L341.895 289.915L338.124 301.523L347.998 294.349L357.873 301.523L354.101 289.915L363.976 282.74H351.77ZM302.415 295.807L298.643 284.199L294.871 295.807H282.665L292.54 302.981L288.768 314.59L298.643 307.416L308.518 314.59L304.746 302.981L314.621 295.807H302.415ZM261.31 321.532L265.081 333.14H277.287L267.412 340.315L271.184 351.923L261.31 344.749L251.435 351.923L255.207 340.315L245.332 333.14H257.538L261.31 321.532ZM253.881 381.674L250.11 370.065L246.338 381.674H234.132L244.007 388.848L240.235 400.457L250.11 393.282L259.984 400.457L256.212 388.848L266.087 381.674H253.881ZM263.176 420.465L266.948 432.074H279.154L269.279 439.248L273.051 450.856L263.176 443.683L253.301 450.856L257.073 439.248L247.199 432.074H259.404L263.176 420.465ZM302.415 467.541L298.643 455.932L294.871 467.541H282.665L292.54 474.714L288.768 486.323L298.643 479.149L308.518 486.323L304.746 474.714L314.621 467.541H302.415ZM349.043 468.999L352.815 480.607H365.021L355.146 487.781L358.918 499.39L349.043 492.216L339.168 499.39L342.94 487.781L333.065 480.607H345.271L349.043 468.999ZM401.348 467.541L397.577 455.932L393.804 467.541H381.599L391.473 474.714L387.701 486.323L397.577 479.149L407.452 486.323L403.679 474.714L413.554 467.541H401.348ZM434.91 418.599L438.681 430.207H450.887L441.013 437.381L444.785 448.99L434.91 441.816L425.034 448.99L428.807 437.381L418.932 430.207H431.138L434.91 418.599ZM449.881 381.674L446.11 370.065L442.338 381.674H430.132L440.007 388.848L436.234 400.457L446.11 393.282L455.985 400.457L452.213 388.848L462.087 381.674H449.881ZM433.044 321.532L436.815 333.14H449.021L439.146 340.315L442.919 351.923L433.044 344.749L423.167 351.923L426.94 340.315L417.065 333.14H429.271L433.044 321.532ZM401.348 295.807L397.577 284.199L393.804 295.807H381.599L391.473 302.981L387.701 314.59L397.577 307.416L407.452 314.59L403.679 302.981L413.554 295.807H401.348Z" fill="#FFD400"/>
<mask id="mask0_9013_154039" style="mask-type:luminance" maskUnits="userSpaceOnUse" x="580" y="245" width="280" height="280">
<path d="M860 245H580V525H860V245Z" fill="white"/>
</mask>
<g mask="url(#mask0_9013_154039)">
<path d="M720 525C797.319 525 860 462.319 860 385C860 307.68 797.319 245 720 245C642.68 245 580 307.68 580 385C580 462.319 642.68 525 720 525Z" fill="white"/>
<path d="M587.875 338.333H851.833C832.875 284.083 780.957 245 720 245C659.041 245 607.124 284.083 587.875 338.333Z" fill="#FF7700"/>
<path d="M852.124 431.667H587.875C607.125 485.918 659.041 525 720 525C780.957 525 832.875 485.918 852.124 431.667Z" fill="#005B13"/>
<path fill-rule="evenodd" clip-rule="evenodd" d="M689.375 385C689.375 368.086 703.173 354.375 720.193 354.375C737.212 354.375 751.01 368.086 751.01 385C751.01 401.914 737.213 415.625 720.193 415.625C703.173 415.625 689.375 401.914 689.375 385ZM737.779 405.445C737.605 404.902 737.1 404.506 736.497 404.506C735.751 404.506 735.146 405.108 735.146 405.85C735.146 406.331 735.403 406.75 735.785 406.987C734.532 407.867 733.203 408.647 731.804 409.307C731.725 408.64 731.161 408.12 730.468 408.12C729.722 408.12 729.116 408.721 729.116 409.463C729.116 409.781 729.232 410.069 729.418 410.299C728.02 410.803 726.566 411.189 725.071 411.46C725.088 411.375 725.098 411.288 725.098 411.199C725.098 410.457 724.492 409.856 723.746 409.856C723 409.856 722.395 410.457 722.395 411.199C722.395 411.415 722.451 411.616 722.542 411.797C721.767 411.863 720.985 411.904 720.193 411.904C719.464 411.904 718.742 411.867 718.026 411.81C718.139 411.615 718.208 411.392 718.208 411.151C718.208 410.409 717.603 409.808 716.857 409.808C716.111 409.808 715.505 410.409 715.505 411.151C715.505 411.274 715.527 411.39 715.559 411.503C713.971 411.231 712.428 410.827 710.947 410.293C711.273 410.048 711.486 409.663 711.486 409.225C711.486 408.483 710.881 407.882 710.135 407.882C709.388 407.882 708.783 408.483 708.783 409.225C708.783 409.282 708.792 409.338 708.8 409.393L708.803 409.407C707.412 408.764 706.086 408.011 704.836 407.153C705.352 406.965 705.722 406.476 705.722 405.897C705.722 405.156 705.116 404.555 704.37 404.555C703.624 404.555 703.078 405.107 703.028 405.804C701.738 404.752 700.55 403.581 699.476 402.312C700.183 402.269 700.747 401.692 700.747 400.977C700.747 400.262 700.141 399.634 699.395 399.634C698.795 399.634 698.293 400.025 698.116 400.562C697.206 399.289 696.401 397.936 695.72 396.512C695.733 396.512 695.746 396.514 695.759 396.516C695.775 396.518 695.791 396.52 695.807 396.52C696.555 396.52 697.159 395.919 697.159 395.177C697.159 394.434 696.554 393.834 695.807 393.834C695.397 393.834 695.033 394.02 694.786 394.307C694.232 392.812 693.813 391.252 693.532 389.645C693.688 389.709 693.858 389.745 694.037 389.745C694.784 389.745 695.389 389.143 695.389 388.401C695.389 387.66 694.784 387.059 694.037 387.059C693.733 387.059 693.455 387.162 693.229 387.331C693.163 386.563 693.122 385.787 693.122 385.001C693.122 384.216 693.156 383.478 693.219 382.728C693.439 382.88 693.703 382.97 693.99 382.97C694.736 382.97 695.341 382.368 695.341 381.627C695.341 380.885 694.736 380.283 693.99 380.283C693.826 380.283 693.673 380.317 693.528 380.369C693.806 378.776 694.223 377.23 694.772 375.746C695.018 376.06 695.399 376.266 695.833 376.266C696.578 376.266 697.184 375.665 697.184 374.922C697.184 374.18 696.578 373.58 695.833 373.58C695.792 373.58 695.754 373.585 695.716 373.59C695.704 373.592 695.692 373.594 695.68 373.595C696.36 372.158 697.158 370.788 698.072 369.502C698.272 369.996 698.756 370.346 699.325 370.346C700.071 370.346 700.676 369.745 700.676 369.003C700.676 368.317 700.156 367.758 699.488 367.676C700.475 366.513 701.559 365.435 702.728 364.452C702.851 365.067 703.397 365.531 704.053 365.531C704.799 365.531 705.405 364.93 705.405 364.188C705.405 363.658 705.092 363.203 704.643 362.985C705.951 362.07 707.344 361.267 708.809 360.591C708.795 360.667 708.785 360.745 708.785 360.825C708.785 361.566 709.39 362.167 710.136 362.167C710.882 362.167 711.488 361.566 711.488 360.825C711.488 360.368 711.257 359.964 710.905 359.722C712.372 359.189 713.901 358.787 715.473 358.512C715.471 358.527 715.47 358.543 715.467 358.559C715.463 358.592 715.459 358.626 715.459 358.661C715.459 359.402 716.064 360.004 716.81 360.004C717.557 360.004 718.161 359.402 718.161 358.661C718.161 358.493 718.127 358.334 718.07 358.186C718.772 358.131 719.479 358.096 720.194 358.096C720.99 358.096 721.775 358.137 722.553 358.204C722.484 358.366 722.444 358.544 722.444 358.732C722.444 359.474 723.049 360.075 723.795 360.075C724.542 360.075 725.146 359.474 725.146 358.732C725.146 358.674 725.138 358.619 725.129 358.563L725.127 358.55C726.669 358.832 728.167 359.239 729.605 359.769C729.394 360.006 729.26 360.316 729.26 360.658C729.26 361.399 729.865 362.001 730.612 362.001C731.358 362.001 731.899 361.453 731.953 360.761C733.319 361.417 734.616 362.189 735.844 363.054C735.429 363.284 735.145 363.719 735.145 364.224C735.145 364.966 735.75 365.567 736.496 365.567C737.122 365.567 737.643 365.142 737.797 364.569C738.941 365.544 740.005 366.608 740.971 367.758C740.436 367.936 740.048 368.433 740.048 369.025C740.048 369.767 740.653 370.368 741.399 370.368C741.864 370.368 742.272 370.136 742.516 369.782C743.355 370.996 744.095 372.282 744.729 373.628C744.724 373.628 744.72 373.627 744.715 373.626C744.711 373.626 744.706 373.625 744.701 373.625C743.955 373.625 743.349 374.226 743.349 374.968C743.349 375.711 743.955 376.312 744.701 376.312C745.084 376.312 745.427 376.152 745.673 375.899C746.213 377.393 746.621 378.948 746.889 380.55C746.731 380.485 746.558 380.449 746.375 380.449C745.629 380.449 745.024 381.05 745.024 381.791C745.024 382.533 745.629 383.135 746.375 383.135C746.674 383.135 746.948 383.035 747.173 382.872C747.228 383.574 747.265 384.283 747.265 385C747.265 385.778 747.224 386.547 747.159 387.309C746.963 387.197 746.738 387.129 746.495 387.129C745.749 387.129 745.144 387.73 745.144 388.472C745.144 389.213 745.749 389.815 746.495 389.815C746.613 389.815 746.724 389.796 746.833 389.768C746.557 391.296 746.159 392.783 745.635 394.21C745.389 393.949 745.042 393.784 744.653 393.784C743.907 393.784 743.302 394.386 743.302 395.128C743.302 395.87 743.907 396.471 744.653 396.471C744.658 396.471 744.663 396.47 744.668 396.469C744.674 396.469 744.679 396.468 744.684 396.468C744.035 397.834 743.273 399.135 742.411 400.363C742.17 399.996 741.755 399.751 741.28 399.751C740.534 399.751 739.929 400.352 739.929 401.094C739.929 401.69 740.322 402.189 740.863 402.365C739.92 403.472 738.888 404.502 737.779 405.445ZM721.26 370.395C721.422 372.29 721.323 374.198 720.964 376.066L720.274 379.656V379.72L720.267 379.688L720.259 379.72V379.656L719.569 376.064C719.21 374.197 719.111 372.29 719.273 370.397L720.264 358.811H720.268L721.26 370.395ZM719.125 399.605C718.962 397.71 719.062 395.802 719.421 393.934L720.111 390.344V390.28L720.118 390.312L720.126 390.28V390.344L720.816 393.936C721.175 395.803 721.274 397.71 721.112 399.603L720.121 411.189H720.117L719.125 399.605ZM718.594 376.173C718.451 374.277 718.046 372.408 717.393 370.62L713.396 359.684L713.391 359.685L715.473 371.129C715.813 373 716.409 374.816 717.246 376.528L718.855 379.821L718.872 379.883V379.85L718.886 379.879L718.869 379.817L718.594 376.173ZM722.992 399.38C722.338 397.592 721.934 395.723 721.79 393.827L721.515 390.183L721.498 390.121L721.513 390.15V390.117L721.529 390.179L723.138 393.472C723.975 395.184 724.571 397 724.911 398.871L726.993 410.315L726.989 410.316L722.992 399.38ZM716.333 376.883C715.697 375.088 714.817 373.386 713.717 371.825L706.987 362.283L706.983 362.285L711.996 372.808C712.815 374.527 713.868 376.13 715.124 377.57L717.542 380.34L717.575 380.396L717.565 380.364L717.588 380.388L717.555 380.333L716.333 376.883ZM726.668 398.174C725.568 396.614 724.687 394.912 724.052 393.117L722.83 389.667L722.797 389.612L722.82 389.636L722.81 389.604L722.842 389.66L725.261 392.43C726.517 393.87 727.57 395.473 728.389 397.192L733.401 407.715L733.398 407.717L726.668 398.174ZM714.334 378.144C713.249 376.573 711.952 375.155 710.479 373.927L701.476 366.429L701.473 366.432L709.075 375.316C710.317 376.768 711.754 378.046 713.346 379.116L716.409 381.175L716.455 381.22L716.438 381.192L716.466 381.209L716.42 381.164L714.334 378.144ZM729.904 396.072C728.431 394.845 727.134 393.427 726.049 391.855L723.963 388.836L723.917 388.79L723.945 388.808L723.928 388.78L723.974 388.825L727.037 390.884C728.629 391.953 730.066 393.232 731.308 394.684L738.91 403.568L738.907 403.571L729.904 396.072ZM712.735 379.874C711.275 378.633 709.65 377.594 707.906 376.785L697.242 371.841L697.24 371.845L706.913 378.484C708.494 379.569 710.217 380.437 712.035 381.065L715.534 382.271L715.59 382.303L715.565 382.281L715.597 382.29L715.541 382.259L712.735 379.874ZM732.478 393.215C730.733 392.406 729.108 391.367 727.648 390.126L724.843 387.741L724.786 387.71L724.818 387.719L724.794 387.697L724.85 387.729L728.348 388.935C730.166 389.563 731.889 390.43 733.47 391.516L743.143 398.155L743.141 398.159L732.478 393.215ZM711.645 381.952C709.909 381.126 708.067 380.538 706.17 380.202L694.573 378.15L694.572 378.154L705.657 382.098C707.469 382.742 709.361 383.141 711.282 383.282L714.977 383.554L715.04 383.571L715.01 383.555L715.044 383.556L714.981 383.54L711.645 381.952ZM734.213 389.797C732.315 389.462 730.474 388.873 728.738 388.047L725.402 386.46L725.339 386.443L725.372 386.445L725.343 386.429L725.405 386.445L729.101 386.717C731.021 386.859 732.914 387.257 734.726 387.902L745.811 391.846L745.81 391.85L734.213 389.797ZM711.137 384.239C709.244 383.885 707.31 383.786 705.39 383.947L693.65 384.925V384.93L705.392 385.908C707.311 386.067 709.243 385.969 711.135 385.615L714.776 384.935H714.841L714.809 384.927L714.841 384.92H714.776L711.137 384.239ZM734.995 386.053C733.074 386.214 731.14 386.115 729.247 385.761L725.608 385.08H725.543L725.576 385.073L725.543 385.065H725.608L729.249 384.385C731.141 384.031 733.073 383.933 734.993 384.092L746.735 385.07V385.075L734.995 386.053ZM711.245 386.577C709.324 386.719 707.43 387.118 705.617 387.763L694.534 391.706L694.535 391.711L706.134 389.657C708.03 389.321 709.87 388.733 711.605 387.907L714.943 386.32L715.006 386.304H714.972L715.001 386.289L714.939 386.306L711.245 386.577ZM734.766 382.237C732.953 382.882 731.059 383.281 729.137 383.422L725.444 383.694L725.381 383.711L725.411 383.696H725.377L725.44 383.68L728.778 382.092C730.513 381.267 732.353 380.679 734.249 380.343L745.848 378.289L745.849 378.294L734.766 382.237ZM711.965 388.808C710.146 389.435 708.421 390.304 706.839 391.39L697.168 398.03L697.17 398.033L707.835 393.087C709.578 392.279 711.202 391.241 712.661 390.001L715.469 387.615L715.525 387.583L715.493 387.592L715.518 387.57L715.462 387.602L711.965 388.808ZM733.545 378.61C731.963 379.696 730.238 380.565 728.419 381.192L724.922 382.398L724.866 382.43L724.891 382.407L724.859 382.417L724.915 382.385L727.723 379.999C729.182 378.759 730.807 377.721 732.549 376.912L743.214 371.967L743.216 371.97L733.545 378.61ZM713.244 390.78C711.651 391.85 710.213 393.129 708.97 394.583L701.37 403.466L701.373 403.469L710.376 395.968C711.848 394.743 713.144 393.324 714.228 391.754L716.315 388.732L716.361 388.687L716.332 388.704L716.35 388.676L716.304 388.721L713.244 390.78ZM731.414 375.417C730.17 376.87 728.732 378.15 727.14 379.22L724.08 381.278L724.033 381.324L724.051 381.296L724.023 381.313L724.069 381.268L726.155 378.246C727.239 376.675 728.535 375.257 730.007 374.032L739.011 366.531L739.014 366.534L731.414 375.417ZM714.997 392.357C713.739 393.797 712.686 395.4 711.867 397.121L706.856 407.642L706.859 407.645L713.589 398.101C714.689 396.541 715.568 394.84 716.204 393.047L717.427 389.595L717.459 389.54L717.436 389.564L717.446 389.533L717.414 389.588L714.997 392.357ZM728.518 372.879C727.698 374.6 726.645 376.203 725.387 377.643L722.971 380.412L722.938 380.467L722.948 380.436L722.925 380.46L722.958 380.405L724.18 376.953C724.816 375.159 725.696 373.459 726.796 371.899L733.525 362.355L733.529 362.357L728.518 372.879ZM717.104 393.432C716.266 395.146 715.67 396.962 715.33 398.835L713.25 410.277L713.254 410.278L717.251 399.341C717.904 397.553 718.308 395.686 718.452 393.791L718.727 390.144L718.743 390.083L718.728 390.112L718.729 390.079L718.712 390.141L717.104 393.432ZM725.056 371.165C724.715 373.038 724.119 374.854 723.282 376.568L721.673 379.859L721.656 379.921L721.658 379.888L721.642 379.917L721.658 379.856L721.934 376.209C722.077 374.314 722.481 372.447 723.134 370.659L727.131 359.722L727.136 359.723L725.056 371.165ZM720.193 379.721C717.259 379.721 714.879 382.085 714.879 385C714.879 387.915 717.259 390.279 720.193 390.279C723.127 390.279 725.505 387.915 725.505 385C725.505 382.085 723.127 379.721 720.193 379.721Z" fill="#231D9A"/>
</g>
<mask id="mask1_9013_154039" style="mask-type:alpha" maskUnits="userSpaceOnUse" x="1298" y="245" width="280" height="280">
<path d="M1438 525C1515.32 525 1578 462.32 1578 385C1578 307.68 1515.32 245 1438 245C1360.68 245 1298 307.68 1298 385C1298 462.32 1360.68 525 1438 525Z" fill="#231D9A"/>
</mask>
<g mask="url(#mask1_9013_154039)">
<path d="M1578 245H1298V525H1578V245Z" fill="#231D9A"/>
<path d="M1416.12 363.124V240.624H1403V334.687L1308.94 271.249L1280.5 308.437L1343.94 349.999H1287.06V363.124H1416.12Z" fill="white"/>
<path d="M1416.12 406.876V529.376H1403V435.313L1308.94 498.751L1280.5 461.563L1343.94 420.001H1287.06V406.876H1416.12Z" fill="white"/>
<path d="M1403 349.999V347.812L1311.13 286.562L1295.81 304.062L1363.63 349.999H1403Z" fill="#F0263C"/>
<path d="M1403 420V422.188L1311.13 483.438L1295.81 465.938L1363.63 420H1403Z" fill="#F0263C"/>
<path fill-rule="evenodd" clip-rule="evenodd" d="M1459.88 363.125V236.25H1416.12V363.125H1289.25V406.875H1416.12V533.75H1459.88V406.875H1586.75V363.125H1459.88Z" fill="#F0263C"/>
</g>
<mask id="mask2_9013_154039" style="mask-type:luminance" maskUnits="userSpaceOnUse" x="978" y="245" width="280" height="280">
<path d="M1258 245H978V525H1258V245Z" fill="white"/>
</mask>
<g mask="url(#mask2_9013_154039)">
<path d="M1118 525C1195.32 525 1258 462.32 1258 385C1258 307.68 1195.32 245 1118 245C1040.68 245 978 307.68 978 385C978 462.32 1040.68 525 1118 525Z" fill="white"/>
<path d="M978 385.001C978 436.918 1006.29 482.126 1048 506.335V263.668C1006.29 287.876 978 333.085 978 385.001Z" fill="#F0263C"/>
<path d="M1188 263.668V506.043C1229.71 482.126 1258 436.918 1258 385.001C1258 333.085 1229.71 287.876 1188 263.668Z" fill="#F0263C"/>
<path d="M1182.16 385.001L1170.5 379.167L1176.33 361.667L1158.83 367.501L1153 355.834L1135.5 373.334L1141.33 338.334L1129.96 344.167L1118 320.834L1106.04 344.167L1094.66 338.334L1100.5 373.334L1083 355.834L1077.16 367.501L1059.66 361.667L1065.5 379.167L1053.83 385.001L1088.83 414.167L1083 425.834L1112.16 420.001V449.167H1123.83V420.001L1153 425.834L1147.16 414.167L1182.16 385.001Z" fill="#F0263C"/>
</g>
<path d="M168 385C168 307.68 105.32 245 28 245C-49.3199 245 -112 307.68 -112 385C-112 462.32 -49.3199 525 28 525C105.32 525 168 462.32 168 385Z" fill="white"/>
<mask id="mask3_9013_154039" style="mask-type:alpha" maskUnits="userSpaceOnUse" x="-112" y="245" width="280" height="280">
<path d="M28 525C105.32 525 168 462.32 168 385C168 307.68 105.32 245 28 245C-49.3199 245 -112 307.68 -112 385C-112 462.32 -49.3199 525 28 525Z" fill="white"/>
</mask>
<g mask="url(#mask3_9013_154039)">
<path d="M-112 245H168V525H-112V245Z" fill="white"/>
<path d="M28 245H-112V395.894H28V245Z" fill="#231D9A"/>
<path d="M11.3746 250.019L13.4699 256.468H20.251L14.765 260.454L16.8606 266.903L11.3746 262.917L5.88847 266.903L7.98399 260.454L2.49805 256.468H9.27909L11.3746 250.019Z" fill="white"/>
<path d="M11.3746 280.059L13.4699 286.508H20.251L14.765 290.494L16.8606 296.943L11.3746 292.957L5.88847 296.943L7.98399 290.494L2.49805 286.508H9.27909L11.3746 280.059Z" fill="white"/>
<path d="M11.3746 310.102L13.4699 316.551H20.251L14.765 320.537L16.8606 326.986L11.3746 323L5.88847 326.986L7.98399 320.537L2.49805 316.551H9.27909L11.3746 310.102Z" fill="white"/>
<path d="M11.3746 340.142L13.4699 346.591H20.251L14.765 350.576L16.8606 357.026L11.3746 353.04L5.88847 357.026L7.98399 350.576L2.49805 346.591H9.27909L11.3746 340.142Z" fill="white"/>
<path d="M11.3746 370.185L13.4699 376.634H20.251L14.765 380.62L16.8606 387.069L11.3746 383.083L5.88847 387.069L7.98399 380.62L2.49805 376.634H9.27909L11.3746 370.185Z" fill="white"/>
<path d="M234.712 243.565H27.9995V265.325H234.712V243.565Z" fill="#F0263C"/>
<path d="M180.314 287.085H27.9995V308.844H180.314V287.085Z" fill="#F0263C"/>
<path d="M180.314 330.604H27.9995V352.364H180.314V330.604Z" fill="#F0263C"/>
<path d="M234.712 374.121H27.9995V395.88H234.712V374.121Z" fill="#F0263C"/>
<path d="M233.625 417.64H-109.083V439.399H233.625V417.64Z" fill="#F0263C"/>
<path d="M233.625 461.156H-109.083V482.915H233.625V461.156Z" fill="#F0263C"/>
<path d="M233.625 504.676H-109.083V526.435H233.625V504.676Z" fill="#F0263C"/>
</g>
</g>
<defs>
<clipPath id="clip0_9013_154039">
<rect width="1440" height="770" fill="white"/>
</clipPath>
</defs>
</svg>
