<svg width="74" height="74" viewBox="0 0 74 74" fill="none" xmlns="http://www.w3.org/2000/svg">
<circle cx="37" cy="37" r="37" fill="white" fill-opacity="0.1"/>
<mask id="mask0_7826_129084" style="mask-type:alpha" maskUnits="userSpaceOnUse" x="24" y="22" width="27" height="30">
<path d="M50.7732 27.5066C50.7127 26.9026 50.169 26.4797 49.5649 26.4797C41.8932 26.4797 38.329 23.2177 38.329 23.2177C37.8459 22.7344 37.1209 22.7344 36.6376 23.2177C36.6376 23.2177 33.1944 26.4797 25.4017 26.4797C24.7976 26.4797 24.254 26.9026 24.1936 27.5066C24.1936 27.6879 21.8377 46.6561 37.1209 51.7907C37.2417 51.8512 37.3625 51.8512 37.4833 51.8512C37.6041 51.8512 37.7249 51.8512 37.8459 51.7907C53.129 46.7164 50.7732 27.7483 50.7732 27.5066ZM47.7527 37.172C46.303 43.394 42.7992 47.5018 37.4833 49.3744C32.107 47.4413 28.6638 43.3336 27.214 37.172C26.3683 33.7287 26.4287 30.4666 26.5495 28.896C32.4695 28.6544 36.0335 26.7213 37.5438 25.634C39.054 26.7213 42.6181 28.6544 48.5381 28.896C48.5381 30.4666 48.5984 33.6683 47.7527 37.172Z" fill="#FF00FF"/>
</mask>
<g mask="url(#mask0_7826_129084)">
<rect x="20.4381" y="20.438" width="33.8286" height="33.8286" fill="white"/>
</g>
</svg>
